<?xml version="1.0" encoding="utf-8"?>
<!-- Generator: Adobe Illustrator 16.0.4, SVG Export Plug-In . SVG Version: 6.00 Build 0)  -->
<!DOCTYPE svg PUBLIC "-//W3C//DTD SVG 1.1//EN" "http://www.w3.org/Graphics/SVG/1.1/DTD/svg11.dtd">
<svg version="1.1" id="レイヤー_1" xmlns="http://www.w3.org/2000/svg" xmlns:xlink="http://www.w3.org/1999/xlink" x="0px"
	 y="0px" width="405.22px" height="512px" viewBox="0 0 405.22 512" enable-background="new 0 0 405.22 512" xml:space="preserve">
<path fill="#343f3f" d="M33.615,164.992h131.384V33.607h206.613v444.779H33.615V164.992z M145.384,0L0,145.375V512h405.219V0
	H145.384z"/>
<g>
	<defs>
		<rect id="SVGID_1_" x="123" y="246.309" width="166.083" height="232.063"/>
	</defs>
	<clipPath id="SVGID_2_">
		<use xlink:href="#SVGID_1_"  overflow="visible"/>
	</clipPath>
	<path clip-path="url(#SVGID_2_)" fill="#343f3f" d="M211.843,475.487l75.753-99.988c3.627-4.793,0.211-11.674-5.801-11.674h-32.316
		c-4.021,0-7.281-3.26-7.281-7.281V253.587c0-4.021-3.255-7.279-7.275-7.279H177.16c-4.015,0-7.276,3.258-7.276,7.279v102.957
		c0,4.021-3.259,7.281-7.28,7.281h-32.315c-6.013,0-9.429,6.881-5.797,11.674l75.748,99.988
		C203.149,479.333,208.931,479.333,211.843,475.487"/>
</g>
</svg>
