<?xml version="1.0" encoding="utf-8"?>
<!-- Generator: Adobe Illustrator 16.0.4, SVG Export Plug-In . SVG Version: 6.00 Build 0)  -->
<!DOCTYPE svg PUBLIC "-//W3C//DTD SVG 1.1//EN" "http://www.w3.org/Graphics/SVG/1.1/DTD/svg11.dtd">
<svg version="1.1" id="レイヤー_1" xmlns="http://www.w3.org/2000/svg" xmlns:xlink="http://www.w3.org/1999/xlink" x="0px"
	 y="0px" width="405.22px" height="512px" viewBox="0 0 405.22 512" enable-background="new 0 0 405.22 512" xml:space="preserve">
<path fill="#4B4B4B" d="M33.615,164.992h131.384V33.607h206.613v444.779H33.615V164.992z M145.384,0L0,145.375V512h405.219V0
	H145.384z"/>
<g>
	<defs>
		<rect id="SVGID_1_" x="110" y="211.541" width="190.083" height="265.599"/>
	</defs>
	<clipPath id="SVGID_2_">
		<use xlink:href="#SVGID_1_"  overflow="visible"/>
	</clipPath>
	<path clip-path="url(#SVGID_2_)" fill="#4B4B4B" d="M211.681,473.838l86.7-114.438c4.15-5.485,0.241-13.36-6.64-13.36h-36.985
		c-4.603,0-8.334-3.731-8.334-8.334V219.872c0-4.602-3.725-8.331-8.326-8.331h-66.109c-4.596,0-8.328,3.729-8.328,8.331v117.834
		c0,4.603-3.73,8.334-8.333,8.334h-36.985c-6.882,0-10.792,7.875-6.635,13.36l86.694,114.438
		C201.732,478.239,208.349,478.239,211.681,473.838"/>
</g>
</svg>
